Coordinates
version=1
nRows=8
nColumns=63
inDegrees=yes

Units are S.I. units (second, meters, Newtons, ...)
If the header above contains a line with 'inDegrees', this indicates whether rotational values are in degrees (yes) or radians (no).

endheader
time	pelvis_tilt	pelvis_list	pelvis_rotation	pelvis_tx	pelvis_ty	pelvis_tz	hip_flexion_r	hip_adduction_r	hip_rotation_r	knee_angle_r	knee_angle_r_beta	ankle_angle_r	subtalar_angle_r	mtp_angle_r	hip_flexion_l	hip_adduction_l	hip_rotation_l	knee_angle_l	knee_angle_l_beta	ankle_angle_l	subtalar_angle_l	mtp_angle_l	L5_S1_Flex_Ext	L5_S1_Lat_Bending	L5_S1_axial_rotation	L4_L5_Flex_Ext	L4_L5_Lat_Bending	L4_L5_axial_rotation	L3_L4_Flex_Ext	L3_L4_Lat_Bending	L3_L4_axial_rotation	L2_L3_Flex_Ext	L2_L3_Lat_Bending	L2_L3_axial_rotation	L1_L2_Flex_Ext	L1_L2_Lat_Bending	L1_L2_axial_rotation	L1_T12_Flex_Ext	L1_T12_Lat_Bending	L1_T12_axial_rotation	Abs_r3	Abs_r2	Abs_r1	Abs_t1	Abs_t2	neck_flexion	neck_bending	neck_rotation	arm_flex_r	arm_add_r	arm_rot_r	elbow_flex_r	pro_sup_r	wrist_flex_r	wrist_dev_r	arm_flex_l	arm_add_l	arm_rot_l	elbow_flex_l	pro_sup_l	wrist_flex_l	wrist_dev_l
      9.80000000	      4.91840577	     -1.62072840	    173.26092366	      2.53899321	      0.89084260	      0.59785544	     12.79154417	     -4.01413400	     -9.99913276	     23.50165833	      0.41018132	     26.06235411	      4.52799782	      0.00000000	      6.65858232	      0.54443517	     -3.37549776	     14.29638009	      0.24951890	     16.83065586	    -17.70391787	      0.00000000	      0.00089781	     -0.36618349	     -0.45360147	      0.00166733	     -0.48702404	     -0.48195157	      0.00147501	     -0.89033853	     -0.48195157	      0.00102611	     -0.89033853	     -0.39690129	      0.00083371	     -0.74672137	     -0.36855120	      0.00051301	     -0.56721822	     -0.34020110	      0.00641298	     -4.14234086	     -2.52279531	      0.00000000	      0.00000000	      0.00000000	      0.00000000	      0.00000000	     -0.90154217	    -11.57793023	     49.92587515	     22.02817134	     60.44219298	      0.00000000	      5.00000014	    -18.54237668	     -3.25404428	     -8.47757208	     27.37080218	     54.16033710	      0.00000000	      5.00000014
      9.83333333	      4.89150246	     -1.70131974	    173.23324102	      2.53907469	      0.89093616	      0.59748074	     12.75692365	     -4.03454447	     -9.81416137	     23.42335110	      0.40881460	     25.98064370	      4.37571777	      0.00000000	      6.70177885	      0.62326026	     -3.52693138	     14.33199660	      0.25014053	     16.41969622	    -17.87781519	      0.00000000	     -0.00105771	     -0.37539831	     -0.41434514	     -0.00196427	     -0.49927976	     -0.44024171	     -0.00173771	     -0.91274346	     -0.44024171	     -0.00120885	     -0.91274346	     -0.36255200	     -0.00098219	     -0.76551224	     -0.33665542	     -0.00060437	     -0.58149199	     -0.31075885	     -0.00755510	     -4.24658080	     -2.30446336	      0.00000000	      0.00000000	      0.00000000	      0.00000000	      0.00000000	     -0.97712644	    -11.58856426	     49.87875706	     22.15086568	     60.74459852	      0.00000000	      5.00000014	    -18.47386824	     -3.15994224	     -9.18270601	     27.37699603	     54.85178401	      0.00000000	      5.00000014
      9.86666667	      4.93385068	     -1.78176805	    173.52060984	      2.53912167	      0.89069058	      0.59721528	     12.77937882	     -4.03141280	     -9.62370215	     23.43388381	      0.40899843	     25.93957391	      3.71136767	      0.00000000	      6.84859596	      0.70534979	     -3.19539570	     14.44017771	      0.25202865	     16.04640321	    -18.18275042	      0.00000000	     -0.00027806	     -0.37674736	     -0.40889399	     -0.00051639	     -0.50107399	     -0.43444986	     -0.00045683	     -0.91602353	     -0.43444986	     -0.00031780	     -0.91602353	     -0.35778224	     -0.00025821	     -0.76826322	     -0.33222636	     -0.00015888	     -0.58358166	     -0.30667049	     -0.00198616	     -4.26184150	     -2.27414569	      0.00000000	      0.00000000	      0.00000000	      0.00000000	      0.00000000	     -1.20713622	    -11.52597940	     49.37951569	     22.19910703	     60.10813250	      0.00000000	      5.00000014	    -18.36804296	     -2.80662011	    -10.91995100	     27.45557467	     54.72794622	      0.00000000	      5.00000014
      9.90000000	      5.01169771	     -1.74563174	    173.81846881	      2.53917726	      0.89026675	      0.59721545	     12.78105458	     -3.96511101	     -9.67638374	     23.37310068	      0.40793756	     26.00034145	      3.55223280	      0.00000000	      7.08505206	      0.66496781	     -2.77110366	     14.77536251	      0.25787872	     15.96538279	    -18.43787763	      0.00000000	     -0.00056617	     -0.35578911	     -0.39675057	     -0.00105144	     -0.47319952	     -0.42154748	     -0.00093016	     -0.86506564	     -0.42154748	     -0.00064708	     -0.86506564	     -0.34715674	     -0.00052575	     -0.72552515	     -0.32235983	     -0.00032351	     -0.55111733	     -0.29756292	     -0.00404410	     -4.02475756	     -2.20660762	      0.00000000	      0.00000000	      0.00000000	      0.00000000	      0.00000000	     -1.46009748	    -11.55794635	     48.76005619	     22.24673946	     59.83202106	      0.00000000	      5.00000014	    -18.15308350	     -2.15735095	    -13.62424878	     27.49606566	     54.33250461	      0.00000000	      5.00000014
      9.93333333	      5.09180839	     -1.70934154	    173.84891153	      2.53916271	      0.88980842	      0.59722743	     12.88916680	     -3.90022140	     -9.50675746	     23.45944933	      0.40944463	     26.10925860	      3.47737468	      0.00000000	      7.17264434	      0.64150294	     -2.60145381	     14.90852948	      0.26020293	     16.02606477	    -18.58481474	      0.00000000	      0.00025802	     -0.32999616	     -0.34464790	      0.00047917	     -0.43889489	     -0.36618840	      0.00042390	     -0.80235266	     -0.36618840	      0.00029489	     -0.80235266	     -0.30156691	      0.00023960	     -0.67292817	     -0.28002642	      0.00014743	     -0.51116405	     -0.25848593	      0.00184302	     -3.73298256	     -1.91682823	      0.00000000	      0.00000000	      0.00000000	      0.00000000	      0.00000000	     -1.77263272	    -11.61046719	     47.74857660	     22.30642766	     58.71530226	      0.00000000	      5.00000014	    -17.91267296	     -2.00017826	    -14.02706047	     27.32758778	     54.09157545	      0.00000000	      5.00000014
      9.96666667	      5.11576101	     -1.74582217	    173.32007624	      2.53905119	      0.88938577	      0.59681209	     13.07671242	     -3.91552451	     -9.11461522	     23.67511553	      0.41320872	     26.36644157	      3.99049926	      0.00000000	      7.00446464	      0.68437790	     -3.03470039	     14.75976193	      0.25760644	     16.27385080	    -18.57915912	      0.00000000	      0.00056112	     -0.31551504	     -0.21464310	      0.00104206	     -0.41963500	     -0.22805829	      0.00092187	     -0.76714326	     -0.22805829	      0.00064131	     -0.76714326	     -0.18781271	      0.00052106	     -0.64339826	     -0.17439752	      0.00032063	     -0.48873279	     -0.16098232	      0.00400804	     -3.56916920	     -1.19378051	      0.00000000	      0.00000000	      0.00000000	      0.00000000	      0.00000000	     -2.27764562	    -11.53334662	     45.23024437	     22.51161173	     58.01752916	      0.00000000	      5.00000014	    -17.77761896	     -2.48950414	    -11.75431074	     27.07930340	     54.78820098	      0.00000000	      5.00000014
     10.00000000	      5.14146068	     -1.54646892	    173.10776182	      2.53866937	      0.88906885	      0.59676019	     13.02685005	     -3.71406159	     -8.96324338	     23.59031101	      0.41172860	     26.48624762	      4.26237568	      0.00000000	      6.82011664	      0.53883667	     -3.03443711	     14.63318955	      0.25539734	     16.70026272	    -18.58404210	      0.00000000	      0.00169726	     -0.28199735	     -0.17768079	      0.00315198	     -0.37505647	     -0.18878584	      0.00278843	     -0.68564835	     -0.18878584	      0.00193980	     -0.68564835	     -0.15547069	      0.00157607	     -0.57504899	     -0.14436564	      0.00096981	     -0.43681389	     -0.13326059	      0.01212335	     -3.19001041	     -0.98820725	      0.00000000	      0.00000000	      0.00000000	      0.00000000	      0.00000000	     -2.33132154	    -11.66712210	     45.01986799	     22.49029215	     58.01649755	      0.00000000	      5.00000014	    -17.82925609	     -2.51131138	    -11.36904539	     27.10765626	     54.91736878	      0.00000000	      5.00000014
     10.03333333	      5.14982122	     -1.41362769	    172.77892691	      2.53823356	      0.88874157	      0.59653201	     13.08756732	     -3.53178870	     -8.45813971	     23.71775951	      0.41395299	     26.61336569	      4.05976090	      0.00000000	      6.48991123	      0.46351371	     -3.06696431	     14.24551690	      0.24863117	     17.14878904	    -18.58638885	      0.00000000	      0.00221498	     -0.25772557	     -0.12167370	      0.00411343	     -0.34277500	     -0.12927831	      0.00363898	     -0.62663394	     -0.12927831	      0.00253150	     -0.62663394	     -0.10646449	      0.00205683	     -0.52555397	     -0.09885988	      0.00126564	     -0.39921690	     -0.09125528	      0.01582135	     -2.91544315	     -0.67671264	      0.00000000	      0.00000000	      0.00000000	      0.00000000	      0.00000000	     -2.43791680	    -11.80056170	     44.76625785	     22.57528765	     57.60658326	      0.00000000	      5.00000014	    -17.90666040	     -2.70161985	    -10.16019988	     27.11287338	     54.91096767	      0.00000000	      5.00000014
